<?xml version="1.0" encoding="UTF-8"?>
<svg width="48px" height="48px" viewBox="0 0 48 48" version="1.1" xmlns="http://www.w3.org/2000/svg" xmlns:xlink="http://www.w3.org/1999/xlink">
    <!-- Generator: Sketch 50.2 (55047) - http://www.bohemiancoding.com/sketch -->
    <title>refresh</title>
    <desc>Created with Sketch.</desc>
    <defs></defs>
    <g id="Page-1" stroke="none" stroke-width="1" fill="none" fill-rule="evenodd">
        <g id="refresh" fill="#000000" fill-rule="nonzero">
            <path d="M33,8.41154273 L36,3.21539031 L40.0442286,14.2105808 L28.5,16.2057714 L31.5,11.0096189 C24.3256106,6.86748332 15.1517546,9.32561065 11.0096189,16.5 C6.86748332,23.6743894 9.32561065,32.8482454 16.5,36.9903811 C23.6743894,41.1325167 32.8482454,38.6743894 36.9903811,31.5 C37.4045946,30.7825611 38.3219802,30.5367483 39.0394192,30.9509619 C39.7568581,31.3651755 40.0026708,32.2825611 39.5884573,33 C34.6178945,41.6092672 23.6092672,44.55902 15,39.5884573 C6.39073278,34.6178945 3.44097998,23.6092672 8.41154273,15 C13.3821055,6.39073278 24.3907328,3.44097998 33,8.41154273 Z" id="Combined-Shape"></path>
        </g>
    </g>
</svg>